<svg id="Layer_1" data-name="Layer 1" xmlns="http://www.w3.org/2000/svg" viewBox="0 0 2368.43 950.35"><defs><style>.cls-1{fill:#ffbe2e;}.cls-2{font-size:460.21px;fill:#141003;font-family:Dosis-Bold, Dosis;font-weight:700;}</style></defs><polygon class="cls-1" points="489.86 285.56 489.86 659.98 397.81 734.33 397.81 508.62 92.06 508.62 92.06 767.52 87.12 767.52 0 697.15 0 248.38 90.41 175.35 92.06 175.35 92.06 434.26 397.81 434.26 397.81 211.2 489.86 285.56"/><polygon class="cls-1" points="665.75 287.22 665.75 664.76 304.63 950.35 286.03 935.32 233.79 893.13 192.33 859.64 192.33 557.14 286.03 557.14 286.03 851.82 564.51 631.59 572.05 625.63 572.05 318.55 286.03 87.52 286.03 395.16 192.33 395.16 192.33 95.17 310.16 0 665.75 287.22"/><text class="cls-2" transform="translate(753.11 646.03)">HADDOU</text></svg>